<svg id="color" enable-background="new 0 0 24 24" height="512" viewBox="0 0 24 24" width="512" xmlns="http://www.w3.org/2000/svg"><path d="m14.25 0h-11.5c-1.52 0-2.75 1.23-2.75 2.75v15.5c0 1.52 1.23 2.75 2.75 2.75h6.59c-.54-1.14-.84-2.41-.84-3.75 0-1.15.22-2.25.64-3.26.2-.51.45-1 .74-1.45.65-1.01 1.49-1.87 2.48-2.54.51-.35 1.05-.64 1.63-.86.93-.39 1.95-.61 3.01-.63v-5.76c0-1.52-1.23-2.75-2.75-2.75z" fill="#eceff1"/><path d="m8.5 0h-5.75c-1.52 0-2.75 1.23-2.75 2.75v15.5c0 1.52 1.23 2.75 2.75 2.75h5.75v-3.75z" fill="#cdd0d2"/><path d="m17.25 24c-3.722 0-6.75-3.028-6.75-6.75s3.028-6.75 6.75-6.75 6.75 3.028 6.75 6.75-3.028 6.75-6.75 6.75z" fill="#2196f3"/><path d="m17.25 21c-.552 0-1-.448-1-1v-5.5c0-.552.448-1 1-1s1 .448 1 1v5.5c0 .552-.448 1-1 1z" fill="#fff"/><path d="m20 18.25h-5.5c-.552 0-1-.448-1-1s.448-1 1-1h5.5c.552 0 1 .448 1 1s-.448 1-1 1z" fill="#fff"/><path d="m17.25 10.5c-3.723 0-6.75 3.027-6.75 6.75s3.027 6.75 6.75 6.75v-3c-.553 0-1-.447-1-1v-1.75h-1.75c-.553 0-1-.447-1-1s.447-1 1-1h1.75v-1.75c0-.553.447-1 1-1z" fill="#1d83d4"/><path d="m17.25 18.25h-1v1.75c0 .553.447 1 1 1zm0-4.75c-.553 0-1 .447-1 1v1.75h1z" fill="#dedede"/><path d="m17.25 16.25h-1-1.75c-.553 0-1 .447-1 1s.447 1 1 1h1.75 1z" fill="#dedede"/><g fill="#90a4ae"><path d="m14 9-.01.14c-.58.22-1.12.51-1.63.86h-8.36c-.55 0-1-.45-1-1s.45-1 1-1h9c.55 0 1 .45 1 1z"/><path d="m9.88 12.54c-.29.45-.54.94-.74 1.45l-.14.01h-5c-.55 0-1-.45-1-1s.45-1 1-1h5c.38 0 .72.22.88.54z"/><path d="m8 6h-4c-.552 0-1-.447-1-1s.448-1 1-1h4c.552 0 1 .447 1 1s-.448 1-1 1z"/></g><path d="m14 9h-11c0 .55.45 1 1 1h8.36c.51-.35 1.05-.64 1.63-.86z" fill="#7d8f97"/><path d="m9.605 13h-6.605c0 .55.45 1 1 1h5l.14-.01c.134-.341.29-.673.465-.99z" fill="#7d8f97"/><path d="m9 5h-6c0 .553.448 1 1 1h4c.552 0 1-.447 1-1z" fill="#7d8f97"/></svg>