<svg height="512" viewBox="0 0 128 128" width="512" xmlns="http://www.w3.org/2000/svg"><g><g><path d="m1.75 44.384h124.5a0 0 0 0 1 0 0v68.242a5 5 0 0 1 -5 5h-114.5a5 5 0 0 1 -5-5v-68.242a0 0 0 0 1 0 0z" fill="#e1e4fb"/><path d="m7.75 25.257h112.5a6 6 0 0 1 6 6v13.127a0 0 0 0 1 0 0h-124.5a0 0 0 0 1 0 0v-13.127a6 6 0 0 1 6-6z" fill="#0d70b2"/><g fill="#1689fc"><path d="m19.125 10.374h4.034a4 4 0 0 1 4 4v10.883a0 0 0 0 1 0 0h-12.034a0 0 0 0 1 0 0v-10.883a4 4 0 0 1 4-4z"/><path d="m47.7 10.374h4.034a4 4 0 0 1 4 4v10.883a0 0 0 0 1 0 0h-12.034a0 0 0 0 1 0 0v-10.883a4 4 0 0 1 4-4z"/><path d="m76.269 10.374h4.031a4 4 0 0 1 4 4v10.883a0 0 0 0 1 0 0h-12.031a0 0 0 0 1 0 0v-10.883a4 4 0 0 1 4-4z"/><path d="m104.841 10.374h4.034a4 4 0 0 1 4 4v10.883a0 0 0 0 1 0 0h-12.034a0 0 0 0 1 0 0v-10.883a4 4 0 0 1 4-4z"/></g><g fill="#c5c9f7"><rect height="11.928" rx="2" width="14.736" x="11.75" y="54.385"/><rect height="11.928" rx="2" width="14.736" x="41.671" y="54.385"/><rect height="11.928" rx="2" width="14.736" x="71.592" y="54.385"/><rect height="11.928" rx="2" width="14.736" x="101.514" y="54.385"/><rect height="11.928" rx="2" width="14.736" x="11.75" y="75.041"/><rect height="11.928" rx="2" width="14.736" x="41.671" y="75.041"/><rect height="11.928" rx="2" width="14.736" x="71.592" y="75.041"/><rect height="11.928" rx="2" width="14.736" x="101.514" y="75.041"/><rect height="11.928" rx="2" width="14.736" x="11.75" y="95.698"/><rect height="11.928" rx="2" width="14.736" x="41.671" y="95.698"/></g><path d="m77.094 109.376a1.749 1.749 0 0 1 -1.371-.663l-5.5-6.94a1.749 1.749 0 1 1 2.741-2.173l4.1 5.177 7.3-9.544a1.75 1.75 0 0 1 2.781 2.125l-8.66 11.331a1.753 1.753 0 0 1 -1.375.687z" fill="#00ddc1"/><path d="m107.016 109.376a1.751 1.751 0 0 1 -1.372-.663l-5.5-6.94a1.749 1.749 0 1 1 2.742-2.173l4.1 5.177 7.294-9.544a1.75 1.75 0 0 1 2.781 2.125l-8.659 11.331a1.753 1.753 0 0 1 -1.375.687z" fill="#00ddc1"/></g><g><path d="m91.687 42.635h-5.543a1.75 1.75 0 0 0 0 3.5h5.543a1.75 1.75 0 0 0 0-3.5z"/><path d="m120.25 23.507h-5.625v-9.133a5.756 5.756 0 0 0 -5.75-5.75h-4.034a5.756 5.756 0 0 0 -5.75 5.75v9.133h-13.038v-9.133a5.756 5.756 0 0 0 -5.75-5.75h-4.034a5.757 5.757 0 0 0 -5.75 5.75v9.133h-13.038v-9.133a5.757 5.757 0 0 0 -5.75-5.75h-4.031a5.757 5.757 0 0 0 -5.75 5.75v9.133h-13.041v-9.133a5.757 5.757 0 0 0 -5.75-5.75h-4.034a5.757 5.757 0 0 0 -5.75 5.75v9.133h-5.625a7.759 7.759 0 0 0 -7.75 7.75v81.369a6.758 6.758 0 0 0 6.75 6.75h114.5a6.758 6.758 0 0 0 6.75-6.75v-81.369a7.759 7.759 0 0 0 -7.75-7.75zm-17.659-9.133a2.253 2.253 0 0 1 2.25-2.25h4.034a2.253 2.253 0 0 1 2.25 2.25v9.133h-8.534zm-28.572 0a2.253 2.253 0 0 1 2.25-2.25h4.031a2.253 2.253 0 0 1 2.25 2.25v9.133h-8.531zm-28.572 0a2.253 2.253 0 0 1 2.25-2.25h4.034a2.253 2.253 0 0 1 2.25 2.25v9.133h-8.534zm-28.572 0a2.253 2.253 0 0 1 2.25-2.25h4.034a2.253 2.253 0 0 1 2.25 2.25v9.133h-8.534zm107.625 98.252a3.254 3.254 0 0 1 -3.25 3.25h-114.5a3.254 3.254 0 0 1 -3.25-3.25v-66.491h68.769a1.75 1.75 0 0 0 0-3.5h-68.769v-11.378a4.255 4.255 0 0 1 4.25-4.25h112.5a4.254 4.254 0 0 1 4.25 4.25v11.378h-18.938a1.75 1.75 0 0 0 0 3.5h18.938z"/><path d="m24.486 52.635h-10.736a3.754 3.754 0 0 0 -3.75 3.75v7.928a3.755 3.755 0 0 0 3.75 3.75h10.736a3.755 3.755 0 0 0 3.75-3.75v-7.928a3.754 3.754 0 0 0 -3.75-3.75zm.25 11.678a.251.251 0 0 1 -.25.25h-10.736a.251.251 0 0 1 -.25-.25v-7.928a.25.25 0 0 1 .25-.25h10.736a.25.25 0 0 1 .25.25z"/><path d="m54.407 52.635h-10.736a3.754 3.754 0 0 0 -3.75 3.75v7.928a3.755 3.755 0 0 0 3.75 3.75h10.736a3.755 3.755 0 0 0 3.75-3.75v-7.928a3.754 3.754 0 0 0 -3.75-3.75zm.25 11.678a.251.251 0 0 1 -.25.25h-10.736a.251.251 0 0 1 -.25-.25v-7.928a.251.251 0 0 1 .25-.25h10.736a.25.25 0 0 1 .25.25z"/><path d="m84.329 52.635h-10.736a3.754 3.754 0 0 0 -3.75 3.75v7.928a3.755 3.755 0 0 0 3.75 3.75h10.736a3.755 3.755 0 0 0 3.75-3.75v-7.928a3.755 3.755 0 0 0 -3.75-3.75zm.25 11.678a.251.251 0 0 1 -.25.25h-10.736a.251.251 0 0 1 -.25-.25v-7.928a.25.25 0 0 1 .25-.25h10.736a.25.25 0 0 1 .25.25z"/><path d="m99.764 56.385v7.928a3.755 3.755 0 0 0 3.75 3.75h10.736a3.755 3.755 0 0 0 3.75-3.75v-7.928a3.755 3.755 0 0 0 -3.75-3.75h-10.736a3.754 3.754 0 0 0 -3.75 3.75zm14.736 0v7.928a.251.251 0 0 1 -.25.25h-10.736a.251.251 0 0 1 -.25-.25v-7.928a.25.25 0 0 1 .25-.25h10.736a.25.25 0 0 1 .25.25z"/><path d="m24.486 73.291h-10.736a3.755 3.755 0 0 0 -3.75 3.75v7.928a3.755 3.755 0 0 0 3.75 3.75h10.736a3.755 3.755 0 0 0 3.75-3.75v-7.928a3.755 3.755 0 0 0 -3.75-3.75zm.25 11.678a.251.251 0 0 1 -.25.25h-10.736a.251.251 0 0 1 -.25-.25v-7.928a.25.25 0 0 1 .25-.25h10.736a.25.25 0 0 1 .25.25z"/><path d="m54.407 73.291h-10.736a3.755 3.755 0 0 0 -3.75 3.75v7.928a3.755 3.755 0 0 0 3.75 3.75h10.736a3.755 3.755 0 0 0 3.75-3.75v-7.928a3.755 3.755 0 0 0 -3.75-3.75zm.25 11.678a.251.251 0 0 1 -.25.25h-10.736a.251.251 0 0 1 -.25-.25v-7.928a.251.251 0 0 1 .25-.25h10.736a.25.25 0 0 1 .25.25z"/><path d="m84.329 73.291h-10.736a3.755 3.755 0 0 0 -3.75 3.75v7.928a3.755 3.755 0 0 0 3.75 3.75h10.736a3.755 3.755 0 0 0 3.75-3.75v-7.928a3.755 3.755 0 0 0 -3.75-3.75zm.25 11.678a.251.251 0 0 1 -.25.25h-10.736a.251.251 0 0 1 -.25-.25v-7.928a.25.25 0 0 1 .25-.25h10.736a.25.25 0 0 1 .25.25z"/><path d="m114.25 73.291h-10.736a3.755 3.755 0 0 0 -3.75 3.75v7.928a3.755 3.755 0 0 0 3.75 3.75h10.736a3.755 3.755 0 0 0 3.75-3.75v-7.928a3.755 3.755 0 0 0 -3.75-3.75zm.25 11.678a.251.251 0 0 1 -.25.25h-10.736a.251.251 0 0 1 -.25-.25v-7.928a.25.25 0 0 1 .25-.25h10.736a.25.25 0 0 1 .25.25z"/><path d="m24.486 93.948h-10.736a3.755 3.755 0 0 0 -3.75 3.752v4.263a1.75 1.75 0 0 0 3.5 0v-4.263a.25.25 0 0 1 .25-.25h10.736a.25.25 0 0 1 .25.25v7.928a.25.25 0 0 1 -.25.25h-5.368a1.75 1.75 0 1 0 0 3.5h5.368a3.755 3.755 0 0 0 3.75-3.75v-7.928a3.755 3.755 0 0 0 -3.75-3.752z"/><path d="m54.407 93.948h-10.736a3.755 3.755 0 0 0 -3.75 3.75v7.928a3.755 3.755 0 0 0 3.75 3.75h10.736a3.755 3.755 0 0 0 3.75-3.75v-7.926a3.755 3.755 0 0 0 -3.75-3.752zm.25 11.678a.25.25 0 0 1 -.25.25h-10.736a.251.251 0 0 1 -.25-.25v-7.926a.251.251 0 0 1 .25-.25h10.736a.25.25 0 0 1 .25.25z"/><path d="m86.816 94.905a1.75 1.75 0 0 0 -2.453.328l-7.3 9.544-4.1-5.177a1.749 1.749 0 1 0 -2.742 2.173l5.5 6.94a1.749 1.749 0 0 0 1.371.663h.015a1.753 1.753 0 0 0 1.375-.687l8.66-11.331a1.749 1.749 0 0 0 -.326-2.453z"/><path d="m116.737 94.905a1.75 1.75 0 0 0 -2.453.328l-7.294 9.544-4.1-5.177a1.749 1.749 0 1 0 -2.742 2.173l5.5 6.94a1.751 1.751 0 0 0 1.372.663h.015a1.753 1.753 0 0 0 1.375-.687l8.659-11.331a1.75 1.75 0 0 0 -.332-2.453z"/></g></g></svg>