<?xml version="1.0" encoding="iso-8859-1"?>
<!-- Generator: Adobe Illustrator 19.0.0, SVG Export Plug-In . SVG Version: 6.00 Build 0)  -->
<svg xmlns="http://www.w3.org/2000/svg" xmlns:xlink="http://www.w3.org/1999/xlink" version="1.1" id="Layer_1" x="0px" y="0px" viewBox="0 0 505 505" style="enable-background:new 0 0 505 505;" xml:space="preserve" width="512" height="512">
<g>
	<g>
		<path style="fill:#F0CD00;" d="M497.503,252.499c0,135.31-109.69,245-245,245c-71.33,0-135.54-30.48-180.31-79.13    c-11.76-12.77-22.17-26.8-31.03-41.85c-21.39-36.38-33.66-78.77-33.66-124.02c0-135.31,109.69-245,245-245    c45.26,0,87.65,12.27,124.02,33.67c15.05,8.85,29.07,19.26,41.84,31.03C467.013,116.949,497.503,181.169,497.503,252.499z"/>
		<path style="fill:#FFDE50;" d="M497.503,252.499c0,132.26-104.79,240.04-235.88,244.83c-131.09-4.79-235.88-112.57-235.88-244.83    s104.79-240.04,235.88-244.83C392.713,12.459,497.503,120.239,497.503,252.499z"/>
		<path style="fill:#FFEA94;" d="M418.363,72.199l-346.17,346.17c-11.76-12.77-22.17-26.8-31.03-41.85l335.36-335.35    C391.573,50.019,405.593,60.429,418.363,72.199z"/>
		<path style="fill:#FFEA94;" d="M480.603,162.929l-317.68,317.68c-22.49-8.84-43.36-20.91-62.03-35.64l344.08-344.08    C459.703,119.559,471.773,140.429,480.603,162.929z"/>
		<path style="fill:#FAA300;" d="M442.883,252.499c0,105.14-85.24,190.38-190.38,190.38c-36.62,0-70.82-10.34-99.85-28.26    c-12.65-7.8-24.31-17.05-34.77-27.51c-7.69-7.68-14.73-16.03-21.02-24.94c-8.66-12.27-15.91-25.61-21.5-39.78    c-8.28-20.95-12.94-43.73-13.22-67.55c-0.02-0.78-0.02-1.56-0.02-2.34c0-105.14,85.23-190.38,190.38-190.38    c0.78,0,1.57,0,2.35,0.02c23.82,0.28,46.59,4.95,67.54,13.22c14.17,5.6,27.51,12.84,39.78,21.5c8.91,6.3,17.25,13.33,24.94,21.02    c10.46,10.45,19.71,22.12,27.51,34.77C432.543,181.679,442.883,215.879,442.883,252.499z"/>
		<path style="fill:#FFBD00;" d="M387.113,117.879l-269.23,269.23c-7.69-7.68-14.73-16.03-21.02-24.94    c-8.66-12.27-15.91-25.61-21.5-39.78c-8.28-20.95-12.94-43.73-13.22-67.55c-0.02-0.78-0.02-1.56-0.02-2.34    c0-105.14,85.23-190.38,190.38-190.38c0.78,0,1.57,0,2.35,0.02c23.82,0.28,46.59,4.95,67.54,13.22    c14.17,5.6,27.51,12.84,39.78,21.5C371.083,103.159,379.423,110.189,387.113,117.879z"/>
		<path style="fill:#F68E00;" d="M442.878,252.499c0,105.14-85.24,190.38-190.38,190.38c-3.61,0-7.19-0.1-10.75-0.3    c100.14-5.57,179.62-88.55,179.62-190.08s-79.48-184.51-179.62-190.08c3.56-0.2,7.14-0.3,10.75-0.3    C357.638,62.119,442.878,147.359,442.878,252.499z"/>
	</g>
	<path d="M252.5,505c-67.445,0-130.854-26.265-178.544-73.956C26.265,383.354,0,319.945,0,252.5   c0-35.583,7.256-69.987,21.565-102.258c13.822-31.17,33.512-58.832,58.521-82.216c3.026-2.829,7.772-2.669,10.601,0.356   c2.829,3.025,2.669,7.771-0.356,10.601c-23.529,22-42.053,48.021-55.053,77.339C21.822,186.667,15,219.025,15,252.5   c0,63.438,24.704,123.08,69.563,167.938C129.42,465.296,189.062,490,252.5,490s123.08-24.704,167.938-69.562   C465.296,375.58,490,315.938,490,252.5s-24.704-123.08-69.563-167.938C375.58,39.704,315.938,15,252.5,15   c-48.854,0-95.777,14.716-135.697,42.557c-3.396,2.369-8.072,1.536-10.441-1.861c-2.37-3.398-1.536-8.073,1.861-10.442   C150.672,15.648,200.562,0,252.5,0c67.445,0,130.854,26.265,178.544,73.956C478.735,121.646,505,185.055,505,252.5   s-26.265,130.854-73.956,178.544C383.354,478.735,319.945,505,252.5,505z"/>
	<path d="M252.5,450.378c-109.11,0-197.879-88.768-197.879-197.878S143.39,54.622,252.5,54.622S450.378,143.39,450.378,252.5   S361.61,450.378,252.5,450.378z M252.5,69.622c-100.84,0-182.879,82.039-182.879,182.878S151.66,435.378,252.5,435.378   c100.839,0,182.878-82.039,182.878-182.878S353.339,69.622,252.5,69.622z"/>
	<path style="fill:#F68E00;" d="M246.231,237.87v-77.102c12.016,6.629,20.176,19.423,20.176,34.09   c0,10.346,8.387,18.733,18.733,18.733s18.733-8.387,18.733-18.733c0-35.651-24.557-65.669-57.642-74.043v-15.247   c0-10.346-8.387-18.733-18.733-18.733s-18.733,8.387-18.733,18.733v15.247c-33.085,8.375-57.642,38.392-57.642,74.043   c0,21.287,6.252,37.887,19.113,50.748c9.377,9.377,21.833,16.316,38.529,21.403v77.222c-12.016-6.629-20.176-19.422-20.176-34.089   c0-10.346-8.387-18.733-18.733-18.733c-10.346,0-18.733,8.387-18.733,18.733c0,35.651,24.557,65.668,57.642,74.043v15.247   c0,10.346,8.387,18.733,18.733,18.733s18.733-8.387,18.733-18.733v-15.247c33.085-8.375,57.642-38.391,57.642-74.043   c0-20.992-6.52-38.155-19.378-51.013C275.15,249.783,262.539,242.777,246.231,237.87z M196.729,219.114   c-3.79-3.789-8.139-9.971-8.139-24.256c0-14.667,8.16-27.46,20.176-34.09v66.316C203.713,224.744,199.713,222.099,196.729,219.114z    M246.231,344.231V277.71c16.281,7.582,20.176,18.429,20.176,32.432C266.407,324.809,258.247,337.602,246.231,344.231z"/>
	<path style="fill:#FFEA94;" d="M271.233,237.87v-77.102c12.016,6.629,20.176,19.423,20.176,34.09   c0,10.346,8.387,18.733,18.733,18.733s18.733-8.387,18.733-18.733c0-35.651-24.557-65.669-57.642-74.043v-15.247   c0-10.346-8.387-18.733-18.733-18.733s-18.733,8.387-18.733,18.733v15.247c-33.085,8.375-57.642,38.392-57.642,74.043   c0,21.287,6.252,37.887,19.113,50.748c9.377,9.377,21.833,16.316,38.529,21.403v77.222c-12.016-6.629-20.176-19.422-20.176-34.089   c0-10.346-8.387-18.733-18.733-18.733s-18.733,8.387-18.733,18.733c0,35.651,24.557,65.668,57.642,74.043v15.247   c0,10.346,8.387,18.733,18.733,18.733s18.733-8.387,18.733-18.733v-15.247c33.085-8.375,57.642-38.391,57.642-74.043   c0-20.992-6.52-38.155-19.378-51.013C300.152,249.783,287.54,242.777,271.233,237.87z M221.73,219.114   c-3.79-3.789-8.139-9.971-8.139-24.256c0-14.667,8.16-27.46,20.176-34.09v66.316C228.715,224.744,224.715,222.099,221.73,219.114z    M271.233,344.231V277.71c16.281,7.582,20.176,18.429,20.176,32.432C291.408,324.809,283.249,337.602,271.233,344.231z"/>
	<path d="M252.5,425.665c-14.465,0-26.233-11.768-26.233-26.233v-9.62c-34.219-11.244-57.642-43.206-57.642-79.67   c0-14.465,11.769-26.233,26.233-26.233s26.232,11.768,26.232,26.233c0,6.232,1.857,12.202,5.176,17.242v-54.927   c-15.211-5.271-27.134-12.348-36.332-21.546c-14.34-14.339-21.31-32.674-21.31-56.051c0-36.464,23.423-68.427,57.642-79.67v-9.62   c0-14.465,11.769-26.233,26.233-26.233s26.232,11.768,26.232,26.233v9.62c34.22,11.244,57.643,43.206,57.643,79.67   c0,14.465-11.769,26.233-26.233,26.233s-26.233-11.768-26.233-26.233c0-6.233-1.857-12.203-5.176-17.243v54.792   c15.019,5.17,26.854,12.205,36.067,21.418c14.316,14.316,21.575,33.264,21.575,56.316c0,19.021-6.234,36.968-18.028,51.899   c-2.568,3.25-7.285,3.804-10.534,1.236c-3.251-2.567-3.805-7.284-1.237-10.534c9.683-12.257,14.8-26.989,14.8-42.602   c0-18.93-5.78-34.309-17.182-45.71c-8.481-8.481-19.971-14.821-35.122-19.379c-3.169-0.954-5.339-3.873-5.339-7.182v-77.102   c0-2.653,1.402-5.109,3.687-6.458c2.287-1.35,5.113-1.39,7.437-0.108c14.836,8.185,24.053,23.764,24.053,40.657   c0,6.194,5.039,11.233,11.233,11.233s11.233-5.039,11.233-11.233c0-31.567-21.376-59.025-51.983-66.773   c-3.328-0.842-5.659-3.837-5.659-7.271v-15.247c0-6.194-5.039-11.233-11.232-11.233c-6.194,0-11.233,5.039-11.233,11.233v15.247   c0,3.433-2.331,6.428-5.659,7.271c-30.606,7.747-51.982,35.205-51.982,66.773c0,19.197,5.533,34.062,16.916,45.445   c8.461,8.461,20.044,14.85,35.411,19.532c3.157,0.962,5.314,3.874,5.314,7.174v77.222c0,2.653-1.402,5.109-3.688,6.458   c-2.286,1.349-5.112,1.389-7.436,0.108c-14.836-8.186-24.053-23.764-24.053-40.656c0-6.194-5.039-11.233-11.232-11.233   c-6.194,0-11.233,5.039-11.233,11.233c0,31.567,21.376,59.025,51.982,66.772c3.328,0.842,5.659,3.837,5.659,7.271v15.247   c0,6.194,5.039,11.233,11.233,11.233c6.193,0,11.232-5.039,11.232-11.233v-15.247c0-3.434,2.331-6.428,5.66-7.271   c5.984-1.515,11.748-3.84,17.131-6.912c3.599-2.054,8.179-0.801,10.231,2.796c2.054,3.598,0.801,8.178-2.796,10.231   c-4.848,2.766-9.948,5.036-15.227,6.777v9.625C278.732,413.897,266.965,425.665,252.5,425.665z M271.232,351.731   c-1.319,0-2.638-0.348-3.813-1.042c-2.284-1.349-3.687-3.805-3.687-6.458v-66.521c0-2.562,1.308-4.947,3.469-6.324   s4.875-1.557,7.197-0.475c21.724,10.117,24.51,26.28,24.51,39.231c0,16.893-9.217,32.471-24.053,40.656   C273.727,351.42,272.479,351.731,271.232,351.731z M278.732,292.08v35.304c3.318-5.04,5.176-11.009,5.176-17.242   C283.908,302.814,282.867,296.958,278.732,292.08z M233.767,234.584c-1.073,0-2.149-0.23-3.152-0.695   c-5.911-2.738-10.552-5.836-14.187-9.472l0,0c0,0-0.001-0.001-0.001-0.001c0,0,0,0,0,0c-4.438-4.437-10.336-12.327-10.336-29.558   c0-16.892,9.217-32.471,24.053-40.657c2.323-1.281,5.149-1.242,7.436,0.108c2.285,1.349,3.688,3.805,3.688,6.458v66.316   c0,2.56-1.306,4.942-3.462,6.32C236.579,234.188,235.176,234.584,233.767,234.584z M226.267,177.616   c-3.318,5.04-5.176,11.01-5.176,17.242c0,11.463,3.115,15.941,5.176,18.163V177.616z"/>
</g>















</svg>
