<?xml version="1.0" encoding="iso-8859-1"?>
<!-- Generator: Adobe Illustrator 19.0.0, SVG Export Plug-In . SVG Version: 6.00 Build 0)  -->
<svg xmlns="http://www.w3.org/2000/svg" xmlns:xlink="http://www.w3.org/1999/xlink" version="1.1" id="Layer_1" x="0px" y="0px" viewBox="0 0 505 505" style="enable-background:new 0 0 505 505;" xml:space="preserve" width="512" height="512">
<g>
	<path style="fill:#F0CD00;" d="M497.503,252.499c0,135.31-109.69,245-245,245c-71.33,0-135.54-30.48-180.31-79.13   c-11.76-12.77-22.17-26.8-31.03-41.85c-21.39-36.38-33.66-78.77-33.66-124.02c0-135.31,109.69-245,245-245   c45.26,0,87.65,12.27,124.02,33.67c15.05,8.85,29.07,19.26,41.84,31.03C467.013,116.949,497.503,181.169,497.503,252.499z"/>
	<path style="fill:#FFDE50;" d="M497.503,252.499c0,132.26-104.79,240.04-235.88,244.83c-131.09-4.79-235.88-112.57-235.88-244.83   s104.79-240.04,235.88-244.83C392.713,12.459,497.503,120.239,497.503,252.499z"/>
	<path style="fill:#FFEA94;" d="M418.363,72.199l-346.17,346.17c-11.76-12.77-22.17-26.8-31.03-41.85l335.36-335.35   C391.573,50.019,405.593,60.429,418.363,72.199z"/>
	<path style="fill:#FFEA94;" d="M480.603,162.929l-317.68,317.68c-22.49-8.84-43.36-20.91-62.03-35.64l344.08-344.08   C459.703,119.559,471.773,140.429,480.603,162.929z"/>
	<path style="fill:#FAA300;" d="M442.883,252.499c0,105.14-85.24,190.38-190.38,190.38c-36.62,0-70.82-10.34-99.85-28.26   c-12.65-7.8-24.31-17.05-34.77-27.51c-7.69-7.68-14.73-16.03-21.02-24.94c-8.66-12.27-15.91-25.61-21.5-39.78   c-8.28-20.95-12.94-43.73-13.22-67.55c-0.02-0.78-0.02-1.56-0.02-2.34c0-105.14,85.23-190.38,190.38-190.38   c0.78,0,1.57,0,2.35,0.02c23.82,0.28,46.59,4.95,67.54,13.22c14.17,5.6,27.51,12.84,39.78,21.5c8.91,6.3,17.25,13.33,24.94,21.02   c10.46,10.45,19.71,22.12,27.51,34.77C432.543,181.679,442.883,215.879,442.883,252.499z"/>
	<path style="fill:#FFBD00;" d="M387.113,117.879l-269.23,269.23c-7.69-7.68-14.73-16.03-21.02-24.94   c-8.66-12.27-15.91-25.61-21.5-39.78c-8.28-20.95-12.94-43.73-13.22-67.55c-0.02-0.78-0.02-1.56-0.02-2.34   c0-105.14,85.23-190.38,190.38-190.38c0.78,0,1.57,0,2.35,0.02c23.82,0.28,46.59,4.95,67.54,13.22   c14.17,5.6,27.51,12.84,39.78,21.5C371.083,103.159,379.423,110.189,387.113,117.879z"/>
	<path style="fill:#F68E00;" d="M442.879,252.499c0,105.14-85.24,190.38-190.38,190.38c-3.61,0-7.19-0.1-10.75-0.3   c100.14-5.57,179.62-88.55,179.62-190.08s-79.48-184.51-179.62-190.08c3.56-0.2,7.14-0.3,10.75-0.3   C357.639,62.119,442.879,147.359,442.879,252.499z"/>
</g>
<path d="M252.5,505c-67.445,0-130.854-26.265-178.544-73.956S0,319.945,0,252.5S26.265,121.646,73.956,73.956S185.055,0,252.5,0  s130.854,26.265,178.544,73.956S505,185.055,505,252.5s-26.265,130.854-73.956,178.544S319.945,505,252.5,505z M252.5,15  c-63.438,0-123.08,24.704-167.938,69.562S15,189.062,15,252.5s24.704,123.08,69.562,167.938S189.062,490,252.5,490  s123.08-24.704,167.938-69.562S490,315.938,490,252.5s-24.704-123.08-69.562-167.938S315.938,15,252.5,15z"/>
<path d="M252.5,450.378c-109.11,0-197.878-88.768-197.878-197.878c0-51.271,19.53-99.888,54.993-136.894  c2.867-2.99,7.613-3.091,10.604-0.226c2.99,2.866,3.091,7.614,0.226,10.604c-32.774,34.199-50.823,79.13-50.823,126.515  c0,100.839,82.039,182.878,182.878,182.878c100.84,0,182.879-82.039,182.879-182.878S353.34,69.622,252.5,69.622  c-39.976,0-77.945,12.663-109.803,36.619c-3.313,2.491-8.014,1.824-10.502-1.486c-2.49-3.311-1.824-8.013,1.487-10.502  c34.478-25.926,75.564-39.63,118.818-39.63c109.111,0,197.879,88.768,197.879,197.878S361.611,450.378,252.5,450.378z"/>
<path style="fill:#F68E00;" d="M332.082,299.565c-9.624-5.424-21.82-2.019-27.243,7.604c-14.865,26.376-39.298,42.123-65.359,42.123  c-25.685,0-48.553-14.989-63.053-38.173h55.084c11.046,0,20-8.954,20-20s-8.954-20-20-20h-69.847  c-0.966-6.028-1.478-12.251-1.478-18.619s0.512-12.591,1.478-18.619h69.847c11.046,0,20-8.954,20-20s-8.954-20-20-20h-55.084  c14.5-23.184,37.368-38.173,63.053-38.173c26.061,0,50.494,15.747,65.359,42.123c5.423,9.622,17.621,13.028,27.243,7.604  c9.623-5.423,13.027-17.62,7.604-27.243c-22.05-39.125-59.511-62.483-100.206-62.483c-32.485,0-62.831,14.65-85.447,41.251  c-9.32,10.962-16.845,23.434-22.417,36.922H106.18c-11.046,0-20,8.954-20,20s8.954,20,20,20h15.103  c-0.722,6.124-1.097,12.339-1.097,18.619s0.375,12.496,1.097,18.619H106.18c-11.046,0-20,8.954-20,20s8.954,20,20,20h25.435  c5.572,13.488,13.097,25.959,22.417,36.922c22.616,26.601,52.962,41.251,85.447,41.251c40.695,0,78.156-23.358,100.206-62.483  C345.108,317.185,341.704,304.988,332.082,299.565z"/>
<path style="fill:#FFEA94;" d="M357.083,299.565c-9.624-5.424-21.82-2.019-27.243,7.604c-14.865,26.376-39.298,42.123-65.359,42.123  c-25.685,0-48.553-14.989-63.053-38.173h55.084c11.046,0,20-8.954,20-20s-8.954-20-20-20h-69.847  c-0.966-6.028-1.478-12.251-1.478-18.619s0.512-12.591,1.478-18.619h69.847c11.046,0,20-8.954,20-20s-8.954-20-20-20h-55.084  c14.5-23.184,37.368-38.173,63.053-38.173c26.061,0,50.494,15.747,65.359,42.123c5.423,9.622,17.621,13.028,27.243,7.604  c9.623-5.423,13.027-17.62,7.604-27.243c-22.05-39.125-59.511-62.483-100.206-62.483c-32.485,0-62.831,14.65-85.447,41.251  c-9.32,10.962-16.845,23.434-22.417,36.922h-25.435c-11.046,0-20,8.954-20,20s8.954,20,20,20h15.103  c-0.722,6.124-1.097,12.339-1.097,18.619s0.375,12.496,1.097,18.619h-15.103c-11.046,0-20,8.954-20,20s8.954,20,20,20h25.435  c5.572,13.488,13.097,25.959,22.417,36.922c22.616,26.601,52.962,41.251,85.447,41.251c40.695,0,78.156-23.358,100.206-62.483  C370.11,317.185,366.706,304.988,357.083,299.565z"/>
<path d="M264.48,396.791c-34.722,0-67.097-15.588-91.161-43.893c-8.694-10.226-15.957-21.739-21.629-34.28h-20.509  c-15.164,0-27.5-12.336-27.5-27.5s12.336-27.5,27.5-27.5h6.881c-0.25-3.712-0.375-7.431-0.375-11.119s0.125-7.407,0.375-11.119  h-6.881c-15.164,0-27.5-12.336-27.5-27.5s12.336-27.5,27.5-27.5h20.509c5.673-12.541,12.935-24.054,21.629-34.28  c24.064-28.305,56.439-43.893,91.161-43.893c43.439,0,83.342,24.785,106.74,66.301c7.445,13.21,2.755,30.014-10.455,37.459  c-6.399,3.607-13.821,4.507-20.896,2.531c-7.075-1.975-12.958-6.586-16.564-12.986c-13.518-23.985-35.509-38.305-58.826-38.305  c-18.043,0-35.039,8.298-48.165,23.173h40.196c15.164,0,27.5,12.336,27.5,27.5s-12.336,27.5-27.5,27.5h-63.264  c-0.373,3.689-0.561,7.41-0.561,11.119s0.188,7.43,0.561,11.119h63.264c15.164,0,27.5,12.336,27.5,27.5s-12.336,27.5-27.5,27.5  h-40.196c13.126,14.875,30.121,23.173,48.165,23.173c23.317,0,45.308-14.32,58.826-38.305c3.606-6.399,9.489-11.011,16.563-12.985  c7.076-1.975,14.496-1.076,20.896,2.531c13.209,7.445,17.899,24.249,10.455,37.459c-11.434,20.288-27.228,37.092-45.676,48.596  c-3.517,2.19-8.142,1.119-10.333-2.396c-2.191-3.515-1.119-8.141,2.396-10.333c16.322-10.178,30.342-25.127,40.545-43.231  c3.384-6.005,1.252-13.643-4.752-17.027c-2.908-1.639-6.281-2.047-9.498-1.15c-3.216,0.897-5.89,2.994-7.529,5.902  c-16.212,28.767-43.088,45.94-71.893,45.94c-27.54,0-52.839-15.198-69.411-41.696c-1.446-2.312-1.523-5.227-0.202-7.612  c1.322-2.385,3.833-3.865,6.561-3.865h55.083c6.893,0,12.5-5.607,12.5-12.5s-5.607-12.5-12.5-12.5h-69.847  c-3.684,0-6.823-2.676-7.406-6.313c-1.043-6.512-1.572-13.176-1.572-19.806s0.529-13.293,1.572-19.806  c0.583-3.638,3.722-6.313,7.406-6.313h69.847c6.893,0,12.5-5.607,12.5-12.5s-5.607-12.5-12.5-12.5h-55.083  c-2.727,0-5.239-1.48-6.561-3.865c-1.321-2.385-1.244-5.3,0.202-7.612c16.572-26.498,41.872-41.696,69.411-41.696  c28.805,0,55.681,17.174,71.893,45.94c1.64,2.909,4.313,5.005,7.529,5.903c3.216,0.898,6.589,0.489,9.497-1.15  c6.005-3.385,8.137-11.023,4.753-17.028c-20.703-36.734-55.721-58.665-93.672-58.665c-30.249,0-58.565,13.711-79.733,38.609  c-8.739,10.278-15.871,22.03-21.199,34.927c-1.159,2.806-3.896,4.637-6.932,4.637h-25.435c-6.893,0-12.5,5.607-12.5,12.5  s5.607,12.5,12.5,12.5h15.104c2.142,0,4.182,0.916,5.605,2.517c1.423,1.601,2.094,3.734,1.843,5.861  c-0.694,5.886-1.046,11.854-1.046,17.741s0.352,11.855,1.046,17.741c0.251,2.127-0.42,4.261-1.843,5.861  c-1.423,1.601-3.463,2.517-5.605,2.517h-15.104c-6.893,0-12.5,5.607-12.5,12.5s5.607,12.5,12.5,12.5h25.435  c3.036,0,5.772,1.831,6.932,4.637c5.328,12.897,12.46,24.649,21.199,34.927c21.168,24.897,49.484,38.609,79.733,38.609  c9.342,0,18.635-1.332,27.62-3.96c3.977-1.159,8.141,1.118,9.304,5.094c1.163,3.976-1.118,8.141-5.094,9.304  C285.957,395.256,275.248,396.791,264.48,396.791z"/>















</svg>
