<?xml version="1.0" encoding="iso-8859-1"?>
<!-- Generator: Adobe Illustrator 19.0.0, SVG Export Plug-In . SVG Version: 6.00 Build 0)  -->
<svg xmlns="http://www.w3.org/2000/svg" xmlns:xlink="http://www.w3.org/1999/xlink" version="1.1" id="Layer_1" x="0px" y="0px" viewBox="0 0 505 505" style="enable-background:new 0 0 505 505;" xml:space="preserve" width="512" height="512">
<g>
	<g>
		<path style="fill:#F0CD00;" d="M497.503,252.499c0,135.31-109.69,245-245,245c-71.33,0-135.54-30.48-180.31-79.13    c-11.76-12.77-22.17-26.8-31.03-41.85c-21.39-36.38-33.66-78.77-33.66-124.02c0-135.31,109.69-245,245-245    c45.26,0,87.65,12.27,124.02,33.67c15.05,8.85,29.07,19.26,41.84,31.03C467.013,116.949,497.503,181.169,497.503,252.499z"/>
		<path style="fill:#FFDE50;" d="M497.503,252.499c0,132.26-104.79,240.04-235.88,244.83c-131.09-4.79-235.88-112.57-235.88-244.83    s104.79-240.04,235.88-244.83C392.713,12.459,497.503,120.239,497.503,252.499z"/>
		<path style="fill:#FFEA94;" d="M418.363,72.199l-346.17,346.17c-11.76-12.77-22.17-26.8-31.03-41.85l335.36-335.35    C391.573,50.019,405.593,60.429,418.363,72.199z"/>
		<path style="fill:#FFEA94;" d="M480.603,162.929l-317.68,317.68c-22.49-8.84-43.36-20.91-62.03-35.64l344.08-344.08    C459.703,119.559,471.773,140.429,480.603,162.929z"/>
		<path style="fill:#FAA300;" d="M442.883,252.499c0,105.14-85.24,190.38-190.38,190.38c-36.62,0-70.82-10.34-99.85-28.26    c-12.65-7.8-24.31-17.05-34.77-27.51c-7.69-7.68-14.73-16.03-21.02-24.94c-8.66-12.27-15.91-25.61-21.5-39.78    c-8.28-20.95-12.94-43.73-13.22-67.55c-0.02-0.78-0.02-1.56-0.02-2.34c0-105.14,85.23-190.38,190.38-190.38    c0.78,0,1.57,0,2.35,0.02c23.82,0.28,46.59,4.95,67.54,13.22c14.17,5.6,27.51,12.84,39.78,21.5c8.91,6.3,17.25,13.33,24.94,21.02    c10.46,10.45,19.71,22.12,27.51,34.77C432.543,181.679,442.883,215.879,442.883,252.499z"/>
		<path style="fill:#FFBD00;" d="M387.113,117.879l-269.23,269.23c-7.69-7.68-14.73-16.03-21.02-24.94    c-8.66-12.27-15.91-25.61-21.5-39.78c-8.28-20.95-12.94-43.73-13.22-67.55c-0.02-0.78-0.02-1.56-0.02-2.34    c0-105.14,85.23-190.38,190.38-190.38c0.78,0,1.57,0,2.35,0.02c23.82,0.28,46.59,4.95,67.54,13.22    c14.17,5.6,27.51,12.84,39.78,21.5C371.083,103.159,379.423,110.189,387.113,117.879z"/>
		<path style="fill:#F68E00;" d="M442.879,252.499c0,105.14-85.24,190.38-190.38,190.38c-3.61,0-7.19-0.1-10.75-0.3    c100.14-5.57,179.62-88.55,179.62-190.08s-79.48-184.51-179.62-190.08c3.56-0.2,7.14-0.3,10.75-0.3    C357.639,62.119,442.879,147.359,442.879,252.499z"/>
	</g>
	<path style="fill:#F68E00;" d="M347.041,239.22c-5.329-42.694-32.879-77.9-70.15-94.612V118.19c0-11.046-8.954-20-20-20   c-11.046,0-20,8.954-20,20v16.284c-2.976-0.223-5.979-0.341-9.006-0.341c-3.813,0-7.584,0.187-11.308,0.536V118.19   c0-11.046-8.954-20-20-20s-20,8.954-20,20v27.472c-40.619,19.276-68.777,60.687-68.777,108.557   c0,30.743,11.618,58.821,30.687,80.085H127.8c-11.046,0-20,8.954-20,20s8.954,20,20,20h180.855c11.046,0,20-8.954,20-20   s-8.954-20-20-20h-80.77c-44.159,0-80.085-35.926-80.085-80.085c0-24.652,11.203-46.73,28.777-61.432v48.227   c0,11.046,8.954,20,20,20s20-8.954,20-20v-66.067c3.697-0.525,7.468-0.813,11.308-0.813c3.042,0,6.044,0.192,9.006,0.526v66.354   c0,11.046,8.954,20,20,20c11.046,0,20-8.954,20-20v-50.094c16.336,12.644,27.741,31.482,30.459,53.255   c1.367,10.961,11.37,18.739,22.323,17.369C340.633,260.175,348.409,250.18,347.041,239.22z"/>
	<path style="fill:#FFEA94;" d="M372.043,239.22c-5.329-42.694-32.879-77.9-70.15-94.612V118.19c0-11.046-8.954-20-20-20   s-20,8.954-20,20v16.284c-2.976-0.223-5.979-0.341-9.006-0.341c-3.813,0-7.584,0.187-11.308,0.536V118.19c0-11.046-8.954-20-20-20   s-20,8.954-20,20v27.472c-40.619,19.276-68.777,60.687-68.777,108.557c0,30.743,11.618,58.821,30.687,80.085h-10.687   c-11.046,0-20,8.954-20,20s8.954,20,20,20h180.854c11.046,0,20-8.954,20-20s-8.954-20-20-20h-80.77   c-44.159,0-80.085-35.926-80.085-80.085c0-24.652,11.203-46.73,28.777-61.432v48.227c0,11.046,8.954,20,20,20s20-8.954,20-20   v-66.067c3.697-0.525,7.468-0.813,11.308-0.813c3.042,0,6.044,0.192,9.006,0.526v66.354c0,11.046,8.954,20,20,20s20-8.954,20-20   v-50.094c16.336,12.644,27.741,31.482,30.459,53.255c1.367,10.961,11.37,18.739,22.323,17.369   C365.635,260.175,373.411,250.18,372.043,239.22z"/>
	<path d="M333.656,381.804h-3.891c-4.143,0-7.5-3.358-7.5-7.5s3.357-7.5,7.5-7.5h3.891c6.893,0,12.5-5.607,12.5-12.5   s-5.607-12.5-12.5-12.5h-80.77c-48.294,0-87.584-39.291-87.584-87.585c0-25.968,11.469-50.456,31.465-67.185   c2.233-1.869,5.347-2.276,7.987-1.042c2.639,1.233,4.325,3.882,4.325,6.795v48.228c0,6.893,5.607,12.5,12.5,12.5   s12.5-5.607,12.5-12.5v-66.067c0-3.735,2.748-6.9,6.445-7.425c4.147-0.589,8.306-0.888,12.362-0.888   c3.166,0,6.479,0.193,9.848,0.573c3.792,0.428,6.658,3.636,6.658,7.453v66.354c0,6.893,5.607,12.5,12.5,12.5s12.5-5.607,12.5-12.5   v-50.095c0-2.861,1.628-5.473,4.197-6.733c2.569-1.261,5.632-0.949,7.894,0.803c18.587,14.387,30.417,35.076,33.311,58.257   c0.413,3.313,2.093,6.267,4.729,8.318c2.637,2.052,5.911,2.948,9.221,2.539c6.841-0.854,11.71-7.113,10.856-13.952   c-4.827-38.684-30.031-72.67-65.776-88.697c-2.696-1.209-4.432-3.889-4.432-6.844V118.19c0-6.893-5.607-12.5-12.5-12.5   s-12.5,5.607-12.5,12.5v16.284c0,2.086-0.869,4.079-2.398,5.498c-1.528,1.418-3.576,2.143-5.661,1.981   c-2.837-0.212-5.679-0.32-8.446-0.32c-3.48,0-7.049,0.169-10.606,0.503c-2.103,0.198-4.189-0.5-5.75-1.922   c-1.561-1.421-2.451-3.435-2.451-5.545V118.19c0-6.893-5.607-12.5-12.5-12.5s-12.5,5.607-12.5,12.5v27.472   c0,2.896-1.668,5.534-4.285,6.776c-39.178,18.592-64.493,58.543-64.493,101.781c0,27.726,10.218,54.389,28.771,75.078   c1.976,2.204,2.471,5.362,1.265,8.065c-1.207,2.702-3.889,4.442-6.849,4.442h-10.687c-6.893,0-12.5,5.607-12.5,12.5   s5.607,12.5,12.5,12.5h146.961c4.143,0,7.5,3.358,7.5,7.5s-3.357,7.5-7.5,7.5H152.802c-15.164,0-27.5-12.336-27.5-27.5   c0-13.624,9.957-24.965,22.976-27.128c-14.903-21.316-22.976-46.717-22.976-72.958c0-24.583,7.04-48.468,20.357-69.072   c12.092-18.707,28.766-33.885,48.42-44.128V118.19c0-15.164,12.336-27.5,27.5-27.5s27.5,12.336,27.5,27.5v8.502   c1.782-0.054,3.539-0.071,5.313-0.049v-8.453c0-15.164,12.337-27.5,27.5-27.5s27.5,12.336,27.5,27.5v21.666   c17.861,8.851,33.535,21.845,45.547,37.805c13.315,17.694,21.804,38.66,24.546,60.631c1.878,15.046-8.835,28.816-23.882,30.694   c-7.283,0.911-14.492-1.072-20.29-5.583c-5.8-4.512-9.495-11.011-10.404-18.3c-1.691-13.548-7.075-26.073-15.517-36.463v32.374   c0,15.164-12.337,27.5-27.5,27.5s-27.5-12.336-27.5-27.5V181.65c-1.769-0.042-3.524-0.01-5.313,0.087v59.276   c0,15.164-12.336,27.5-27.5,27.5s-27.5-12.336-27.5-27.5v-29.287c-8.885,12.256-13.777,27.06-13.777,42.492   c0,40.024,32.561,72.585,72.584,72.585h80.77c15.163,0,27.5,12.336,27.5,27.5S348.819,381.804,333.656,381.804z"/>
	<path d="M252.5,505c-67.445,0-130.854-26.265-178.544-73.956S0,319.946,0,252.5c0-39.802,8.997-77.891,26.741-113.208   c16.918-33.673,41.672-63.679,71.586-86.774c3.278-2.532,7.988-1.925,10.52,1.353c2.531,3.279,1.925,7.989-1.353,10.52   C79.349,86.12,56.06,114.349,40.145,146.026C23.46,179.235,15,215.058,15,252.5c0,63.438,24.704,123.08,69.562,167.938   S189.062,490,252.5,490c63.439,0,123.081-24.704,167.938-69.562C465.296,375.58,490,315.939,490,252.5   s-24.704-123.08-69.563-167.938C375.581,39.704,315.939,15,252.5,15c-41.304,0-81.978,10.763-117.624,31.125   c-3.596,2.054-8.179,0.805-10.232-2.792c-2.055-3.597-0.805-8.178,2.792-10.232C165.344,11.446,208.591,0,252.5,0   c67.446,0,130.854,26.265,178.544,73.956C478.736,121.647,505,185.055,505,252.5s-26.265,130.854-73.956,178.544   C383.354,478.736,319.946,505,252.5,505z"/>
	<path d="M252.5,450.379c-109.11,0-197.878-88.768-197.878-197.878S143.39,54.622,252.5,54.622   c109.111,0,197.878,88.768,197.878,197.878S361.611,450.379,252.5,450.379z M252.5,69.622   c-100.839,0-182.878,82.039-182.878,182.878S151.661,435.379,252.5,435.379S435.378,353.34,435.378,252.5   S353.339,69.622,252.5,69.622z"/>
</g>















</svg>
