<svg height="512" viewBox="0 0 64 64" width="512" xmlns="http://www.w3.org/2000/svg" xmlns:xlink="http://www.w3.org/1999/xlink"><linearGradient id="New_Gradient_Swatch_1" gradientUnits="userSpaceOnUse" x1="14.5" x2="14.5" y1="-.13" y2="66.923"><stop offset="0" stop-color="#fff33b"/><stop offset=".014" stop-color="#fee72e"/><stop offset=".042" stop-color="#fed51b"/><stop offset=".07" stop-color="#fdca10"/><stop offset=".1" stop-color="#fdc70c"/><stop offset=".4" stop-color="#f3903f"/><stop offset=".8" stop-color="#ed683c"/><stop offset="1" stop-color="#e93e3a"/></linearGradient><linearGradient id="New_Gradient_Swatch_1-2" x1="13" x2="13" xlink:href="#New_Gradient_Swatch_1" y1="-.13" y2="66.923"/><linearGradient id="New_Gradient_Swatch_1-3" x1="45" x2="45" xlink:href="#New_Gradient_Swatch_1" y1="-.13" y2="66.923"/><linearGradient id="New_Gradient_Swatch_1-4" x1="32" x2="32" xlink:href="#New_Gradient_Swatch_1" y1="-.13" y2="66.923"/><path d="m13 16a1 1 0 0 0 -1 1v4h2v-3h3v-2z" fill="url(#New_Gradient_Swatch_1)"/><path d="m12 23h2v2h-2z" fill="url(#New_Gradient_Swatch_1-2)"/><path d="m55 42h-7v-7a1 1 0 0 0 -1-1h-4a1 1 0 0 0 -1 1v7h-7a1 1 0 0 0 -1 1v4a1 1 0 0 0 1 1h7v7a1 1 0 0 0 1 1h4a1 1 0 0 0 1-1v-7h7a1 1 0 0 0 1-1v-4a1 1 0 0 0 -1-1zm-1 4h-7a1 1 0 0 0 -1 1v7h-2v-7a1 1 0 0 0 -1-1h-7v-2h7a1 1 0 0 0 1-1v-7h2v7a1 1 0 0 0 1 1h7z" fill="url(#New_Gradient_Swatch_1-3)"/><path d="m54 30.6v-15.6a3 3 0 0 0 -2-2.816v-3.184a3 3 0 0 0 -3-3h-28a1 1 0 0 1 -1-1 3 3 0 0 0 -3-3h-12a3 3 0 0 0 -3 3v38a3 3 0 0 0 3 3h23.051a16.989 16.989 0 1 0 25.949-15.4zm-50 12.4v-38a1 1 0 0 1 1-1h12a1 1 0 0 1 1 1 3 3 0 0 0 3 3h28a1 1 0 0 1 1 1v3h-37a5.006 5.006 0 0 0 -5 5v24a4.948 4.948 0 0 0 1.026 3h-4.026a1 1 0 0 1 -1-1zm6-2v-24a3 3 0 0 1 3-3h38a1 1 0 0 1 1 1v14.526a16.947 16.947 0 0 0 -23.949 14.474h-15.051a3 3 0 0 1 -3-3zm35 19a15 15 0 1 1 15-15 15.017 15.017 0 0 1 -15 15z" fill="url(#New_Gradient_Swatch_1-4)"/></svg>