<?xml version="1.0" encoding="iso-8859-1"?>
<!-- Generator: Adobe Illustrator 19.0.0, SVG Export Plug-In . SVG Version: 6.00 Build 0)  -->
<svg xmlns="http://www.w3.org/2000/svg" xmlns:xlink="http://www.w3.org/1999/xlink" version="1.1" id="Layer_1" x="0px" y="0px" viewBox="0 0 505 505" style="enable-background:new 0 0 505 505;" xml:space="preserve" width="512" height="512">
<g>
	<g>
		<path style="fill:#F0CD00;" d="M497.503,252.499c0,135.31-109.69,245-245,245c-71.33,0-135.54-30.48-180.31-79.13    c-11.76-12.77-22.17-26.8-31.03-41.85c-21.39-36.38-33.66-78.77-33.66-124.02c0-135.31,109.69-245,245-245    c45.26,0,87.65,12.27,124.02,33.67c15.05,8.85,29.07,19.26,41.84,31.03C467.013,116.949,497.503,181.169,497.503,252.499z"/>
		<path style="fill:#FFDE50;" d="M497.503,252.499c0,132.26-104.79,240.04-235.88,244.83c-131.09-4.79-235.88-112.57-235.88-244.83    s104.79-240.04,235.88-244.83C392.713,12.459,497.503,120.239,497.503,252.499z"/>
		<path style="fill:#FFEA94;" d="M418.363,72.199l-346.17,346.17c-11.76-12.77-22.17-26.8-31.03-41.85l335.36-335.35    C391.573,50.019,405.593,60.429,418.363,72.199z"/>
		<path style="fill:#FFEA94;" d="M480.603,162.929l-317.68,317.68c-22.49-8.84-43.36-20.91-62.03-35.64l344.08-344.08    C459.703,119.559,471.773,140.429,480.603,162.929z"/>
		<path style="fill:#FAA300;" d="M442.883,252.499c0,105.14-85.24,190.38-190.38,190.38c-36.62,0-70.82-10.34-99.85-28.26    c-12.65-7.8-24.31-17.05-34.77-27.51c-7.69-7.68-14.73-16.03-21.02-24.94c-8.66-12.27-15.91-25.61-21.5-39.78    c-8.28-20.95-12.94-43.73-13.22-67.55c-0.02-0.78-0.02-1.56-0.02-2.34c0-105.14,85.23-190.38,190.38-190.38    c0.78,0,1.57,0,2.35,0.02c23.82,0.28,46.59,4.95,67.54,13.22c14.17,5.6,27.51,12.84,39.78,21.5c8.91,6.3,17.25,13.33,24.94,21.02    c10.46,10.45,19.71,22.12,27.51,34.77C432.543,181.679,442.883,215.879,442.883,252.499z"/>
		<path style="fill:#FFBD00;" d="M387.113,117.879l-269.23,269.23c-7.69-7.68-14.73-16.03-21.02-24.94    c-8.66-12.27-15.91-25.61-21.5-39.78c-8.28-20.95-12.94-43.73-13.22-67.55c-0.02-0.78-0.02-1.56-0.02-2.34    c0-105.14,85.23-190.38,190.38-190.38c0.78,0,1.57,0,2.35,0.02c23.82,0.28,46.59,4.95,67.54,13.22    c14.17,5.6,27.51,12.84,39.78,21.5C371.083,103.159,379.423,110.189,387.113,117.879z"/>
		<path style="fill:#F68E00;" d="M442.879,252.499c0,105.14-85.24,190.38-190.38,190.38c-3.61,0-7.19-0.1-10.75-0.3    c100.14-5.57,179.62-88.55,179.62-190.08s-79.48-184.51-179.62-190.08c3.56-0.2,7.14-0.3,10.75-0.3    C357.639,62.119,442.879,147.359,442.879,252.499z"/>
	</g>
	<path d="M252.5,505c-67.445,0-130.854-26.265-178.544-73.956S0,319.945,0,252.5S26.265,121.646,73.956,73.956S185.055,0,252.5,0   c44.971,0,89.127,11.972,127.693,34.623c37.428,21.982,68.763,53.423,90.617,90.923c2.085,3.579,0.875,8.171-2.704,10.256   c-3.577,2.084-8.17,0.876-10.256-2.704c-20.56-35.281-50.04-64.861-85.253-85.542C336.332,26.258,294.803,15,252.5,15   c-63.438,0-123.08,24.704-167.938,69.562S15,189.062,15,252.5s24.704,123.08,69.562,167.938S189.062,490,252.5,490   s123.08-24.704,167.938-69.562S490,315.938,490,252.5c0-31.925-6.225-62.902-18.503-92.069c-1.607-3.817,0.185-8.215,4.003-9.822   c3.816-1.608,8.216,0.186,9.822,4.003C498.379,185.631,505,218.565,505,252.5c0,67.445-26.265,130.854-73.956,178.544   S319.945,505,252.5,505z"/>
	<path d="M252.5,450.378c-109.11,0-197.878-88.768-197.878-197.878S143.39,54.622,252.5,54.622   c109.111,0,197.879,88.768,197.879,197.878S361.611,450.378,252.5,450.378z M252.5,69.622   c-100.839,0-182.878,82.039-182.878,182.878S151.661,435.378,252.5,435.378c100.84,0,182.879-82.039,182.879-182.878   S353.34,69.622,252.5,69.622z"/>
	<path style="fill:#F68E00;" d="M262.31,293.561c49.831,0,90.371-40.541,90.371-90.371s-40.541-90.371-90.371-90.371h-99.692   c-11.046,0-20,8.954-20,20v120.742h-13.622c-11.046,0-20,8.954-20,20s8.954,20,20,20h13.622v23.003h-13.622   c-11.046,0-20,8.954-20,20s8.954,20,20,20h13.622v20.438c0,11.046,8.954,20,20,20s20-8.954,20-20v-20.438h69.955   c11.046,0,20-8.954,20-20s-8.954-20-20-20h-69.955v-23.003H262.31z M182.619,152.819h79.692c27.775,0,50.371,22.596,50.371,50.371   c0,27.774-22.596,50.371-50.371,50.371h-79.692V152.819z"/>
	<path style="fill:#FFEA94;" d="M287.312,293.561c49.831,0,90.371-40.541,90.371-90.371s-40.541-90.371-90.371-90.371H187.62   c-11.046,0-20,8.954-20,20v120.742h-13.622c-11.046,0-20,8.954-20,20s8.954,20,20,20h13.622v23.003h-13.622   c-11.046,0-20,8.954-20,20s8.954,20,20,20h13.622v20.438c0,11.046,8.954,20,20,20s20-8.954,20-20v-20.438h69.955   c11.046,0,20-8.954,20-20s-8.954-20-20-20H207.62v-23.003H287.312z M207.62,152.819h79.692c27.775,0,50.371,22.596,50.371,50.371   c0,27.774-22.596,50.371-50.371,50.371H207.62V152.819z"/>
	<path d="M187.62,404.502c-15.164,0-27.5-12.336-27.5-27.5v-12.938h-6.122c-15.164,0-27.5-12.336-27.5-27.5s12.336-27.5,27.5-27.5   h6.122v-8.003h-6.122c-15.164,0-27.5-12.336-27.5-27.5s12.336-27.5,27.5-27.5h6.122v-23.719c0-4.142,3.358-7.5,7.5-7.5   s7.5,3.358,7.5,7.5v31.219c0,4.142-3.358,7.5-7.5,7.5h-13.622c-6.893,0-12.5,5.607-12.5,12.5s5.607,12.5,12.5,12.5h13.622   c4.142,0,7.5,3.358,7.5,7.5v23.003c0,4.142-3.358,7.5-7.5,7.5h-13.622c-6.893,0-12.5,5.607-12.5,12.5s5.607,12.5,12.5,12.5h13.622   c4.142,0,7.5,3.358,7.5,7.5v20.438c0,6.893,5.607,12.5,12.5,12.5s12.5-5.607,12.5-12.5v-20.438c0-4.142,3.358-7.5,7.5-7.5h69.955   c6.893,0,12.5-5.607,12.5-12.5s-5.607-12.5-12.5-12.5H207.62c-4.142,0-7.5-3.358-7.5-7.5v-23.003c0-4.142,3.358-7.5,7.5-7.5h79.692   c45.695,0,82.871-37.176,82.871-82.871c0-45.695-37.176-82.871-82.871-82.871H187.62c-6.893,0-12.5,5.607-12.5,12.5v59.521   c0,4.142-3.358,7.5-7.5,7.5s-7.5-3.358-7.5-7.5v-59.521c0-15.164,12.336-27.5,27.5-27.5h99.692   c53.966,0,97.871,43.905,97.871,97.871c0,53.966-43.905,97.871-97.871,97.871H215.12v8.003h62.455c15.164,0,27.5,12.336,27.5,27.5   s-12.336,27.5-27.5,27.5H215.12v12.938C215.12,392.166,202.784,404.502,187.62,404.502z M287.312,261.061H207.62   c-4.142,0-7.5-3.358-7.5-7.5V152.819c0-4.142,3.358-7.5,7.5-7.5h79.692c31.91,0,57.871,25.961,57.871,57.871   S319.222,261.061,287.312,261.061z M215.12,246.061h72.192c23.639,0,42.871-19.231,42.871-42.871s-19.232-42.871-42.871-42.871   H215.12V246.061z"/>
</g>















</svg>
