<svg height="512" viewBox="0 0 64 64" width="512" xmlns="http://www.w3.org/2000/svg"><path d="m45.42 18a14.459 14.459 0 0 0 -1.1-2.66l3.94-3.95-5.65-5.65-3.95 3.94a14.459 14.459 0 0 0 -2.66-1.1v-5.58h-8v5.58a14.459 14.459 0 0 0 -2.66 1.1l-3.95-3.94-5.65 5.65 3.94 3.95a14.459 14.459 0 0 0 -1.1 2.66h-5.58v7h11.59a7.9 7.9 0 0 1 -.59-3 8 8 0 0 1 16 0 7.9 7.9 0 0 1 -.59 3h11.59v-7z" fill="#9bc9ff"/><path d="m52.445 35h6.555a2 2 0 0 0 0-4h-6.555a3.881 3.881 0 0 1 0 4z" fill="#9bc9ff"/><path d="m5 35h40.555a3.881 3.881 0 0 1 0-4h-40.555a2 2 0 0 0 0 4z" fill="#9bc9ff"/><path d="m17.555 43h-12.555a2 2 0 0 0 0 4h12.555a3.881 3.881 0 0 1 0-4z" fill="#9bc9ff"/><path d="m59 43h-34.555a3.881 3.881 0 0 1 0 4h34.555a2 2 0 0 0 0-4z" fill="#9bc9ff"/><path d="m34.555 55h-29.555a2 2 0 0 0 0 4h29.555a3.881 3.881 0 0 1 0-4z" fill="#9bc9ff"/><path d="m59 55h-17.555a3.881 3.881 0 0 1 0 4h17.555a2 2 0 0 0 0-4z" fill="#9bc9ff"/><g fill="#1e81ce"><path d="m31 6h2v2h-2z"/><path d="m52 24v-6a1 1 0 0 0 -1-1h-4.856a15.2 15.2 0 0 0 -.606-1.465l3.43-3.439a1 1 0 0 0 0-1.413l-5.65-5.65a1 1 0 0 0 -1.413 0l-3.439 3.43a15.2 15.2 0 0 0 -1.466-.607v-4.856a1 1 0 0 0 -1-1h-8a1 1 0 0 0 -1 1v4.856a15.2 15.2 0 0 0 -1.465.606l-3.435-3.43a1 1 0 0 0 -1.413 0l-5.65 5.65a1 1 0 0 0 0 1.413l3.43 3.439a15.2 15.2 0 0 0 -.611 1.466h-4.856a1 1 0 0 0 -1 1v6h-10v2h60v-2zm-38-5h4.58a1 1 0 0 0 .958-.712 13.459 13.459 0 0 1 1.024-2.476 1 1 0 0 0 -.174-1.178l-3.234-3.243 4.237-4.237 3.243 3.234a1 1 0 0 0 1.178.174 13.459 13.459 0 0 1 2.476-1.024 1 1 0 0 0 .712-.958v-4.58h6v4.58a1 1 0 0 0 .712.958 13.459 13.459 0 0 1 2.476 1.024 1 1 0 0 0 1.178-.174l3.243-3.234 4.237 4.237-3.234 3.243a1 1 0 0 0 -.174 1.178 13.459 13.459 0 0 1 1.024 2.476 1 1 0 0 0 .958.712h4.58v5h-9.236a8.878 8.878 0 0 0 .236-2 9 9 0 0 0 -18 0 8.878 8.878 0 0 0 .236 2h-9.236zm11 3a7 7 0 0 1 14 0 6.894 6.894 0 0 1 -.3 2h-13.4a6.894 6.894 0 0 1 -.3-2z"/><path d="m59 30h-6.026a4.948 4.948 0 0 0 -7.948 0h-40.026a3.015 3.015 0 0 0 -3 3 3 3 0 0 0 3 3h40.026a4.948 4.948 0 0 0 7.948 0h6.026a3.015 3.015 0 0 0 3-3 3 3 0 0 0 -3-3zm-54 4a1 1 0 0 1 -1-1 .974.974 0 0 1 .306-.712.957.957 0 0 1 .694-.288h39.1a5 5 0 0 0 0 2zm44 2a3 3 0 1 1 3-3 3 3 0 0 1 -3 3zm10.694-2.288a.957.957 0 0 1 -.694.288h-5.1a5 5 0 0 0 0-2h5.1a1 1 0 0 1 1 1 .974.974 0 0 1 -.306.712z"/><path d="m59 42h-34.026a4.948 4.948 0 0 0 -7.948 0h-12.026a3.015 3.015 0 0 0 -3 3 3 3 0 0 0 3 3h12.026a4.948 4.948 0 0 0 7.948 0h34.026a3.015 3.015 0 0 0 3-3 3 3 0 0 0 -3-3zm-54 4a1 1 0 0 1 -1-1 .974.974 0 0 1 .306-.712.957.957 0 0 1 .694-.288h11.1a5 5 0 0 0 0 2zm16 2a3 3 0 1 1 3-3 3 3 0 0 1 -3 3zm38.694-2.288a.957.957 0 0 1 -.694.288h-33.1a5 5 0 0 0 0-2h33.1a1 1 0 0 1 1 1 .974.974 0 0 1 -.306.712z"/><path d="m59 54h-17.026a4.948 4.948 0 0 0 -7.948 0h-29.026a3.015 3.015 0 0 0 -3 3 3 3 0 0 0 3 3h29.026a4.948 4.948 0 0 0 7.948 0h17.026a3.015 3.015 0 0 0 3-3 3 3 0 0 0 -3-3zm-54 4a1 1 0 0 1 -1-1 .974.974 0 0 1 .306-.712.957.957 0 0 1 .694-.288h28.1a5 5 0 0 0 0 2zm33 2a3 3 0 1 1 3-3 3 3 0 0 1 -3 3zm21.694-2.288a.957.957 0 0 1 -.694.288h-16.1a5 5 0 0 0 0-2h16.1a1 1 0 0 1 1 1 .974.974 0 0 1 -.306.712z"/><path d="m20.394 10.394h2v2h-2z" transform="matrix(.707 -.707 .707 .707 -1.79 18.465)"/><path d="m16 21h2v2h-2z"/><path d="m46 21h2v2h-2z"/><path d="m41.607 10.394h2v2h-2z" transform="matrix(.707 -.707 .707 .707 4.423 33.464)"/></g></svg>