<?xml version="1.0" encoding="iso-8859-1"?>
<!-- Generator: Adobe Illustrator 19.0.0, SVG Export Plug-In . SVG Version: 6.00 Build 0)  -->
<svg xmlns="http://www.w3.org/2000/svg" xmlns:xlink="http://www.w3.org/1999/xlink" version="1.1" id="Layer_1" x="0px" y="0px" viewBox="0 0 505 505" style="enable-background:new 0 0 505 505;" xml:space="preserve" width="512" height="512">
<g>
	<g>
		<path style="fill:#F0CD00;" d="M497.503,252.499c0,135.31-109.69,245-245,245c-71.33,0-135.54-30.48-180.31-79.13    c-11.76-12.77-22.17-26.8-31.03-41.85c-21.39-36.38-33.66-78.77-33.66-124.02c0-135.31,109.69-245,245-245    c45.26,0,87.65,12.27,124.02,33.67c15.05,8.85,29.07,19.26,41.84,31.03C467.013,116.949,497.503,181.169,497.503,252.499z"/>
		<path style="fill:#FFDE50;" d="M497.503,252.499c0,132.26-104.79,240.04-235.88,244.83c-131.09-4.79-235.88-112.57-235.88-244.83    s104.79-240.04,235.88-244.83C392.713,12.459,497.503,120.239,497.503,252.499z"/>
		<path style="fill:#FFEA94;" d="M418.363,72.199l-346.17,346.17c-11.76-12.77-22.17-26.8-31.03-41.85l335.36-335.35    C391.573,50.019,405.593,60.429,418.363,72.199z"/>
		<path style="fill:#FFEA94;" d="M480.603,162.929l-317.68,317.68c-22.49-8.84-43.36-20.91-62.03-35.64l344.08-344.08    C459.703,119.559,471.773,140.429,480.603,162.929z"/>
		<path style="fill:#FAA300;" d="M442.883,252.499c0,105.14-85.24,190.38-190.38,190.38c-36.62,0-70.82-10.34-99.85-28.26    c-12.65-7.8-24.31-17.05-34.77-27.51c-7.69-7.68-14.73-16.03-21.02-24.94c-8.66-12.27-15.91-25.61-21.5-39.78    c-8.28-20.95-12.94-43.73-13.22-67.55c-0.02-0.78-0.02-1.56-0.02-2.34c0-105.14,85.23-190.38,190.38-190.38    c0.78,0,1.57,0,2.35,0.02c23.82,0.28,46.59,4.95,67.54,13.22c14.17,5.6,27.51,12.84,39.78,21.5c8.91,6.3,17.25,13.33,24.94,21.02    c10.46,10.45,19.71,22.12,27.51,34.77C432.543,181.679,442.883,215.879,442.883,252.499z"/>
		<path style="fill:#FFBD00;" d="M387.113,117.879l-269.23,269.23c-7.69-7.68-14.73-16.03-21.02-24.94    c-8.66-12.27-15.91-25.61-21.5-39.78c-8.28-20.95-12.94-43.73-13.22-67.55c-0.02-0.78-0.02-1.56-0.02-2.34    c0-105.14,85.23-190.38,190.38-190.38c0.78,0,1.57,0,2.35,0.02c23.82,0.28,46.59,4.95,67.54,13.22    c14.17,5.6,27.51,12.84,39.78,21.5C371.083,103.159,379.423,110.189,387.113,117.879z"/>
		<path style="fill:#F68E00;" d="M442.878,252.499c0,105.14-85.24,190.38-190.38,190.38c-3.61,0-7.19-0.1-10.75-0.3    c100.14-5.57,179.62-88.55,179.62-190.08s-79.48-184.51-179.62-190.08c3.56-0.2,7.14-0.3,10.75-0.3    C357.638,62.119,442.878,147.359,442.878,252.499z"/>
	</g>
	<path d="M252.5,505c-67.445,0-130.854-26.265-178.544-73.956C26.265,383.354,0,319.945,0,252.5S26.265,121.646,73.956,73.956   C121.646,26.265,185.055,0,252.5,0s130.854,26.265,178.544,73.956C478.735,121.646,505,185.055,505,252.5   s-26.265,130.854-73.956,178.544C383.354,478.735,319.945,505,252.5,505z M252.5,15c-63.438,0-123.08,24.704-167.938,69.562   C39.704,129.42,15,189.062,15,252.5s24.704,123.08,69.563,167.938C129.42,465.296,189.062,490,252.5,490   s123.08-24.704,167.938-69.562C465.296,375.58,490,315.938,490,252.5s-24.704-123.08-69.563-167.938   C375.58,39.704,315.938,15,252.5,15z"/>
	<path d="M252.5,450.378c-38.569,0-75.95-11.104-108.101-32.11c-31.321-20.465-56.127-49.202-71.734-83.103   c-1.732-3.763-0.087-8.217,3.676-9.949c3.765-1.733,8.218-0.086,9.949,3.676c14.427,31.335,37.357,57.899,66.314,76.819   c29.705,19.409,64.248,29.667,99.896,29.667c100.839,0,182.878-82.039,182.878-182.878S353.339,69.622,252.5,69.622   c-100.84,0-182.879,82.039-182.879,182.878c0,15.827,2.022,31.536,6.012,46.689c1.055,4.005-1.338,8.107-5.344,9.162   c-4.005,1.054-8.108-1.338-9.162-5.344c-4.317-16.398-6.506-33.392-6.506-50.507c0-109.11,88.769-197.878,197.879-197.878   S450.378,143.39,450.378,252.5S361.61,450.378,252.5,450.378z"/>
	<path style="fill:#F68E00;" d="M312.416,163.92c11.046,0,20-8.954,20-20s-8.954-20-20-20H177.538c-11.046,0-20,8.954-20,20v150.7   H142.58c-11.046,0-20,8.954-20,20s8.954,20,20,20h14.958v46.461c0,11.046,8.954,20,20,20s20-8.954,20-20V334.62h63.761   c11.046,0,20-8.954,20-20s-8.954-20-20-20h-63.761v-31.528h98.719c11.046,0,20-8.954,20-20s-8.954-20-20-20h-98.719V163.92H312.416   z"/>
	<path style="fill:#FFEA94;" d="M337.418,163.92c11.046,0,20-8.954,20-20s-8.954-20-20-20H202.54c-11.046,0-20,8.954-20,20v150.7   h-14.958c-11.046,0-20,8.954-20,20s8.954,20,20,20h14.958v46.461c0,11.046,8.954,20,20,20s20-8.954,20-20V334.62h63.761   c11.046,0,20-8.954,20-20s-8.954-20-20-20H222.54v-31.528h98.719c11.046,0,20-8.954,20-20s-8.954-20-20-20H222.54V163.92H337.418z"/>
	<path d="M202.54,408.581c-15.163,0-27.5-12.336-27.5-27.5V342.12h-7.458c-15.163,0-27.5-12.336-27.5-27.5s12.337-27.5,27.5-27.5   h7.458v-143.2c0-15.164,12.337-27.5,27.5-27.5h134.878c15.163,0,27.5,12.336,27.5,27.5s-12.337,27.5-27.5,27.5H301.78   c-4.143,0-7.5-3.358-7.5-7.5s3.357-7.5,7.5-7.5h35.638c6.893,0,12.5-5.607,12.5-12.5s-5.607-12.5-12.5-12.5H202.54   c-6.893,0-12.5,5.607-12.5,12.5v150.7c0,4.142-3.357,7.5-7.5,7.5h-14.958c-6.893,0-12.5,5.607-12.5,12.5s5.607,12.5,12.5,12.5   h14.958c4.143,0,7.5,3.358,7.5,7.5v46.461c0,6.893,5.607,12.5,12.5,12.5s12.5-5.607,12.5-12.5V334.62c0-4.142,3.357-7.5,7.5-7.5   h63.761c6.893,0,12.5-5.607,12.5-12.5s-5.607-12.5-12.5-12.5H222.54c-4.143,0-7.5-3.358-7.5-7.5v-31.528c0-4.142,3.357-7.5,7.5-7.5   h98.719c6.893,0,12.5-5.607,12.5-12.5s-5.607-12.5-12.5-12.5H222.54c-4.143,0-7.5-3.358-7.5-7.5V163.92c0-4.142,3.357-7.5,7.5-7.5   h49.238c4.143,0,7.5,3.358,7.5,7.5s-3.357,7.5-7.5,7.5H230.04v44.171h91.219c15.163,0,27.5,12.336,27.5,27.5   s-12.337,27.5-27.5,27.5H230.04v16.528h56.261c15.163,0,27.5,12.336,27.5,27.5s-12.337,27.5-27.5,27.5H230.04v38.961   C230.04,396.245,217.703,408.581,202.54,408.581z"/>
</g>















</svg>
