<?xml version="1.0" encoding="iso-8859-1"?>
<!-- Generator: Adobe Illustrator 19.0.0, SVG Export Plug-In . SVG Version: 6.00 Build 0)  -->
<svg xmlns="http://www.w3.org/2000/svg" xmlns:xlink="http://www.w3.org/1999/xlink" version="1.1" id="Layer_1" x="0px" y="0px" viewBox="0 0 505 505" style="enable-background:new 0 0 505 505;" xml:space="preserve" width="512" height="512">
<g>
	<g>
		<path style="fill:#F0CD00;" d="M497.503,252.499c0,135.31-109.69,245-245,245c-71.33,0-135.54-30.48-180.31-79.13    c-11.76-12.77-22.17-26.8-31.03-41.85c-21.39-36.38-33.66-78.77-33.66-124.02c0-135.31,109.69-245,245-245    c45.26,0,87.65,12.27,124.02,33.67c15.05,8.85,29.07,19.26,41.84,31.03C467.013,116.949,497.503,181.169,497.503,252.499z"/>
		<path style="fill:#FFDE50;" d="M497.503,252.499c0,132.26-104.79,240.04-235.88,244.83c-131.09-4.79-235.88-112.57-235.88-244.83    s104.79-240.04,235.88-244.83C392.713,12.459,497.503,120.239,497.503,252.499z"/>
		<path style="fill:#FFEA94;" d="M418.363,72.199l-346.17,346.17c-11.76-12.77-22.17-26.8-31.03-41.85l335.36-335.35    C391.573,50.019,405.593,60.429,418.363,72.199z"/>
		<path style="fill:#FFEA94;" d="M480.603,162.929l-317.68,317.68c-22.49-8.84-43.36-20.91-62.03-35.64l344.08-344.08    C459.703,119.559,471.773,140.429,480.603,162.929z"/>
		<path style="fill:#FAA300;" d="M442.883,252.499c0,105.14-85.24,190.38-190.38,190.38c-36.62,0-70.82-10.34-99.85-28.26    c-12.65-7.8-24.31-17.05-34.77-27.51c-7.69-7.68-14.73-16.03-21.02-24.94c-8.66-12.27-15.91-25.61-21.5-39.78    c-8.28-20.95-12.94-43.73-13.22-67.55c-0.02-0.78-0.02-1.56-0.02-2.34c0-105.14,85.23-190.38,190.38-190.38    c0.78,0,1.57,0,2.35,0.02c23.82,0.28,46.59,4.95,67.54,13.22c14.17,5.6,27.51,12.84,39.78,21.5c8.91,6.3,17.25,13.33,24.94,21.02    c10.46,10.45,19.71,22.12,27.51,34.77C432.543,181.679,442.883,215.879,442.883,252.499z"/>
		<path style="fill:#FFBD00;" d="M387.113,117.879l-269.23,269.23c-7.69-7.68-14.73-16.03-21.02-24.94    c-8.66-12.27-15.91-25.61-21.5-39.78c-8.28-20.95-12.94-43.73-13.22-67.55c-0.02-0.78-0.02-1.56-0.02-2.34    c0-105.14,85.23-190.38,190.38-190.38c0.78,0,1.57,0,2.35,0.02c23.82,0.28,46.59,4.95,67.54,13.22    c14.17,5.6,27.51,12.84,39.78,21.5C371.083,103.159,379.423,110.189,387.113,117.879z"/>
		<path style="fill:#F68E00;" d="M442.879,252.499c0,105.14-85.24,190.38-190.38,190.38c-3.61,0-7.19-0.1-10.75-0.3    c100.14-5.57,179.62-88.55,179.62-190.08s-79.48-184.51-179.62-190.08c3.56-0.2,7.14-0.3,10.75-0.3    C357.639,62.119,442.879,147.359,442.879,252.499z"/>
	</g>
	<path d="M252.5,505c-67.445,0-130.854-26.265-178.544-73.956S0,319.945,0,252.5S26.265,121.646,73.956,73.956S185.055,0,252.5,0   s130.854,26.265,178.544,73.956S505,185.055,505,252.5s-26.265,130.854-73.956,178.544S319.945,505,252.5,505z M252.5,15   c-63.438,0-123.08,24.704-167.938,69.562S15,189.062,15,252.5s24.704,123.08,69.562,167.938S189.062,490,252.5,490   s123.08-24.704,167.938-69.562S490,315.938,490,252.5s-24.704-123.08-69.562-167.938C375.58,39.704,315.938,15,252.5,15z"/>
	<path d="M252.5,450.378c-109.11,0-197.878-88.768-197.878-197.878c0-12.119,1.104-24.259,3.283-36.082   c0.75-4.073,4.663-6.765,8.735-6.017c4.073,0.751,6.767,4.662,6.017,8.735c-2.014,10.929-3.035,22.153-3.035,33.363   c0,100.839,82.039,182.878,182.878,182.878c100.84,0,182.879-82.039,182.879-182.878S353.34,69.622,252.5,69.622   c-37.876,0-74.211,11.474-105.077,33.181c-30.189,21.232-53.021,50.62-66.025,84.988c-1.465,3.874-5.793,5.826-9.669,4.36   c-3.874-1.466-5.826-5.795-4.36-9.669c14.072-37.188,38.771-68.983,71.426-91.949C172.2,67.04,211.519,54.622,252.5,54.622   c109.111,0,197.879,88.768,197.879,197.878C450.379,361.61,361.611,450.378,252.5,450.378z"/>
	<path style="fill:#F68E00;" d="M323.186,150.972c6.985-8.557,5.71-21.156-2.847-28.141c-8.557-6.985-21.156-5.71-28.141,2.847   l-64.7,79.264l-64.7-79.264c-6.984-8.557-19.583-9.831-28.141-2.847c-8.557,6.985-9.832,19.583-2.847,28.141l75.688,92.725v6.325   h-48.685c-11.046,0-20,8.954-20,20s8.954,20,20,20h48.685v101.01c0,11.046,8.955,20,20,20c11.046,0,20-8.954,20-20v-101.01h45.208   c11.046,0,20-8.954,20-20s-8.954-20-20-20h-45.208v-6.325L323.186,150.972z"/>
	<path style="fill:#FFEA94;" d="M348.188,150.972c6.985-8.557,5.71-21.156-2.847-28.141c-8.557-6.985-21.156-5.71-28.141,2.847   l-64.7,79.264l-64.7-79.264c-6.984-8.557-19.583-9.831-28.141-2.847c-8.557,6.985-9.832,19.583-2.847,28.141l75.688,92.725v6.325   h-48.685c-11.046,0-20,8.954-20,20s8.954,20,20,20H232.5v101.01c0,11.046,8.955,20,20,20c11.046,0,20-8.954,20-20v-101.01h45.208   c11.046,0,20-8.954,20-20s-8.954-20-20-20H272.5v-6.325L348.188,150.972z"/>
	<path d="M252.5,418.532c-15.164,0-27.5-12.336-27.5-27.5v-93.51h-41.185c-15.164,0-27.5-12.336-27.5-27.5s12.336-27.5,27.5-27.5   h38.045l-70.857-86.808c-9.588-11.747-7.833-29.105,3.914-38.693c11.749-9.589,29.106-7.832,38.693,3.914l58.89,72.146   l58.89-72.146c4.645-5.69,11.228-9.231,18.536-9.971c7.312-0.74,14.468,1.411,20.158,6.057   c11.747,9.589,13.502,26.947,3.914,38.693l-70.857,86.808h34.567c15.164,0,27.5,12.336,27.5,27.5s-12.336,27.5-27.5,27.5H280   v10.051c0,4.142-3.358,7.5-7.5,7.5s-7.5-3.358-7.5-7.5v-17.551c0-4.142,3.358-7.5,7.5-7.5h45.208c6.893,0,12.5-5.607,12.5-12.5   s-5.607-12.5-12.5-12.5H272.5c-4.142,0-7.5-3.358-7.5-7.5v-6.325c0-1.729,0.597-3.404,1.69-4.743l75.688-92.725   c4.358-5.339,3.56-13.229-1.779-17.588c-2.586-2.111-5.839-3.088-9.162-2.753c-3.322,0.336-6.314,1.946-8.426,4.532l-64.7,79.264   c-1.424,1.745-3.558,2.757-5.81,2.757s-4.386-1.012-5.81-2.757l-64.7-79.264c-4.359-5.34-12.248-6.138-17.588-1.779   c-5.339,4.358-6.137,12.248-1.779,17.588l75.688,92.725c1.093,1.339,1.69,3.014,1.69,4.743v6.325c0,4.142-3.358,7.5-7.5,7.5   h-48.685c-6.893,0-12.5,5.607-12.5,12.5s5.607,12.5,12.5,12.5H232.5c4.142,0,7.5,3.358,7.5,7.5v101.01   c0,6.893,5.607,12.5,12.5,12.5s12.5-5.607,12.5-12.5v-53.458c0-4.142,3.358-7.5,7.5-7.5s7.5,3.358,7.5,7.5v53.458   C280,406.196,267.664,418.532,252.5,418.532z M272.5,243.697h0.01H272.5z"/>
</g>















</svg>
